<?xml version="1.0" encoding="UTF-8"?>
<svg id="Layer_1" data-name="Layer 1" xmlns="http://www.w3.org/2000/svg" viewBox="0 0 23.01 20.49">
  <defs>
    <style>
      .cls-1 {
        fill: #65ff01;
      }
    </style>
  </defs>
  <path class="cls-1" d="M21.65,14.44c-1.09-.78-2.33-1.17-3.61-1.53-.13.89-.12,3.04-.71,3.72-.52.61-3.38.97-4.23,1.01-1.68.1-5.01.01-6.59-.48-1.97-.6-1.43-4.16-1.43-4.16-2.58.34-7.7,2.99-3.49,5.46,4.42,2.6,13.43,2.49,18.16.79,2.37-.85,4.87-2.69,1.89-4.82Z"/>
  <path class="cls-1" d="M7.9,16.71c2.08.35,5.34.38,7.42.02,1.6-.28,1.76-1.06,1.87-2.56.19-2.57-.49-5.63-2.52-7.36-.66-.57-1.33-.86-2.11-1.22.26-.58.86-3.89,1.12-4.15.12-.12.51-.09.69-.37.45-.7-.48-1.47-1.06-.86-.52.55.14.84.03,1.23-.81.74-2.02,3.82-2.84,4.23-.27.13-.65.18-.97.34-2.92,1.48-3.96,5.18-3.75,8.25.12,1.69.43,2.16,2.1,2.44ZM8.14,11.17c.24-1.32,1.35-3.14,2.77-3.38,3.33-.57,4.69,3.88,3.8,6.42-.15.23-2,.58-2.24.48-.09-.04-.59-.58-.49-.78.15-.3,1.54-.51,1.89-1.24.52-1.05-.42-2.6-1.4-3.08-1.21-.59-2.39-.05-3.04,1.06-.68,1.17-.66,2.03.55,2.73.27.16,1.15.37,1.11.68-.09.08-.56.61-.6.63-.19.08-1.82-.23-2.07-.34-.58-.28-.41-2.6-.3-3.18ZM12.28,10.83c.6-.57.6,1.22.11,1.17-.51-.06-.37-.93-.11-1.17ZM10.93,11.74c-.67.86-1.05-.93-.43-1.04.29-.05.66.74.43,1.04Z"/>
</svg>