<?xml version="1.0" encoding="UTF-8"?>
<svg id="Layer_1" data-name="Layer 1" xmlns="http://www.w3.org/2000/svg" viewBox="0 0 1117.33 910.17">
  <defs>
    <style>
      .cls-1 {
        stroke-dasharray: 12.08 12.08;
      }

      .cls-1, .cls-2, .cls-3, .cls-4, .cls-5, .cls-6, .cls-7, .cls-8, .cls-9, .cls-10, .cls-11, .cls-12, .cls-13, .cls-14, .cls-15, .cls-16, .cls-17, .cls-18, .cls-19, .cls-20, .cls-21, .cls-22 {
        fill: none;
        stroke: #0019ff;
        stroke-miterlimit: 10;
        stroke-width: 1.42px;
      }

      .cls-2 {
        stroke-dasharray: 11.89 11.89;
      }

      .cls-3 {
        stroke-dasharray: 12.13 12.13;
      }

      .cls-4 {
        stroke-dasharray: 12.26 12.26;
      }

      .cls-5 {
        stroke-dasharray: 12.38 12.38;
      }

      .cls-7 {
        stroke-dasharray: 12.14 12.14;
      }

      .cls-8 {
        stroke-dasharray: 11.3 11.3;
      }

      .cls-9 {
        stroke-dasharray: 11.85 11.85;
      }

      .cls-10 {
        stroke-dasharray: 12.87 12.87;
      }

      .cls-11 {
        stroke-dasharray: 12.24 12.24;
      }

      .cls-12 {
        stroke-dasharray: 11.86 11.86;
      }

      .cls-13 {
        stroke-dasharray: 12.22 12.22;
      }

      .cls-14 {
        stroke-dasharray: 12.3 12.3;
      }

      .cls-15 {
        stroke-dasharray: 12.07 12.07;
      }

      .cls-16 {
        stroke-dasharray: 11.9 11.9;
      }

      .cls-17 {
        stroke-dasharray: 12.06 12.06;
      }

      .cls-18 {
        stroke-dasharray: 12.05 12.05;
      }

      .cls-19 {
        stroke-dasharray: 12.21 12.21;
      }

      .cls-20 {
        stroke-dasharray: 11.68 11.68;
      }

      .cls-21 {
        stroke-dasharray: 11.88 11.88;
      }

      .cls-22 {
        stroke-dasharray: 11.33 11.33;
      }
    </style>
  </defs>
  <ellipse class="cls-5" cx="554.3" cy="896.65" rx="51.84" ry="12.81"/>
  <g>
    <path class="cls-6" d="M554.3,844.18c2.04,0,4.04,0,5.98.04"/>
    <path class="cls-22" d="M571.58,844.54c52.57,2.34,64.67,15.78,64.67,32.01,0,10.14-8.59,16.94-16.04,20.93"/>
    <path class="cls-6" d="M615.12,899.91c-3.29,1.39-5.62,2.04-5.62,2.04"/>
  </g>
  <g>
    <path class="cls-6" d="M552.22,774.99c1.99,0,3.99.02,5.98.05"/>
    <path class="cls-2" d="M570.05,775.46c62.92,3.31,120.87,23.62,120.87,48.18s-61.07,45.93-124.72,48.27"/>
    <path class="cls-6" d="M560.28,872.06c-1.99.04-3.99.06-5.98.06"/>
  </g>
  <g>
    <path class="cls-6" d="M554.3,872.12c-2.03,0-4.03,0-5.98-.03"/>
    <path class="cls-12" d="M536.49,871.85c-40.05-1.26-61.43-6.82-61.43-13.63s23.48-13.04,67.34-13.94"/>
    <path class="cls-6" d="M548.32,844.21c1.95-.02,3.95-.03,5.98-.03"/>
  </g>
  <g>
    <path class="cls-6" d="M555.46,689.17c2,0,4,0,5.98.02"/>
    <path class="cls-18" d="M573.46,689.37c120.75,2.7,213.13,32.43,213.13,68.7s-96.04,66.93-216.85,68.8"/>
    <path class="cls-6" d="M563.72,826.94c-1.98.02-3.98.02-5.98.02"/>
  </g>
  <g>
    <path class="cls-6" d="M557.74,826.96c-2,0-4,0-5.98-.03"/>
    <path class="cls-4" d="M539.54,826.66c-56.32-1.95-99.43-12.81-99.43-25.92s41.39-24.31,100.02-25.62"/>
    <path class="cls-6" d="M546.24,775.02c1.97-.02,3.97-.03,5.98-.03"/>
  </g>
  <g>
    <path class="cls-6" d="M554.31,552.74h5.98"/>
    <path class="cls-9" d="M572.1,552.81c257.28,1.94,321.81,46.5,321.81,101.17s-113.58,109.87-324.37,111.87"/>
    <path class="cls-6" d="M563.63,765.89h-5.98"/>
  </g>
  <g>
    <path class="cls-6" d="M557.65,765.9c-1.98,0-3.98,0-5.98-.02"/>
    <path class="cls-14" d="M539.43,765.7c-91.57-1.98-195.02-18.39-195.02-38.34s106.1-36.76,198.95-38.11"/>
    <path class="cls-6" d="M549.48,689.19c2,0,4-.02,5.98-.02"/>
  </g>
  <g>
    <path class="cls-6" d="M554.31,361.03h5.98"/>
    <path class="cls-15" d="M572.32,361.14c240.14,2.8,430.58,61.38,430.58,133.85s-130.25,146.71-427.46,148.63"/>
    <path class="cls-6" d="M569.44,643.63h-5.98"/>
  </g>
  <g>
    <path class="cls-6" d="M563.46,643.64c-1.98,0-3.98,0-5.98-.02"/>
    <path class="cls-21" d="M545.64,643.51c-121.11-1.83-260.87-21.98-260.87-48.93s135.78-40.97,257.65-41.81"/>
    <path class="cls-6" d="M548.34,552.75h5.97"/>
  </g>
  <g>
    <path class="cls-6" d="M1116.62,288.67c0,1.99-.11,3.99-.33,5.96"/>
    <path class="cls-13" d="M1113.66,306.51c-27.93,83.98-250.63,154.03-534.84,167.65"/>
    <path class="cls-6" d="M572.73,474.44c-1.99.09-3.99.18-5.98.26"/>
  </g>
  <g>
    <path class="cls-6" d="M566.75,474.7h-5.97"/>
    <path class="cls-2" d="M548.93,474.59c-152.54-1.86-330.89-27.23-330.89-61.28s172.12-51.49,325.36-52.32"/>
    <path class="cls-6" d="M549.33,360.96h5.98"/>
  </g>
  <g>
    <path class="cls-6" d="M554.3,854.98c2.01,0,4.01-.05,5.98-.15"/>
    <path class="cls-8" d="M571.49,853.74c20.3-2.93,35.5-10.44,35.5-15.92,0-5.96-18.04-9.7-41.06-10.64"/>
    <path class="cls-6" d="M560.29,827.02c-1.97-.04-3.97-.06-5.98-.06"/>
  </g>
  <g>
    <path class="cls-6" d="M554.31,790.98c-2.04,0-4.04.02-5.98.05"/>
    <path class="cls-20" d="M536.69,791.43c-46.73,2.54-61.78,15.59-61.78,31.29s19.37,30.11,67.6,32.04"/>
    <path class="cls-6" d="M548.32,854.93c1.95.04,3.95.06,5.98.06"/>
  </g>
  <g>
    <path class="cls-6" d="M557.86,723.14c-1.99,0-3.99.02-5.98.05"/>
    <path class="cls-19" d="M539.71,723.64c-61.9,3.33-118.76,23.2-118.76,47.2s47.79,45.08,108.97,47.46"/>
    <path class="cls-6" d="M536,818.47c1.98.04,3.98.06,5.98.06"/>
  </g>
  <g>
    <path class="cls-6" d="M541.98,818.53c2.01,0,4.01,0,5.98-.03"/>
    <path class="cls-10" d="M560.79,818.24c41.82-1.3,73.24-6.85,73.24-13.49,0-7.08-15.44-12.9-67.32-13.69"/>
    <path class="cls-6" d="M560.3,791c-1.94,0-3.94-.02-5.98-.02"/>
  </g>
  <g>
    <path class="cls-6" d="M554.66,639.01c-2,0-4,0-5.98.02"/>
    <path class="cls-21" d="M536.84,639.21c-119.16,2.66-210.32,31.8-210.32,67.35s94.77,65.6,214,67.46"/>
    <path class="cls-6" d="M546.43,774.08c1.98.02,3.98.02,5.98.02"/>
  </g>
  <g>
    <path class="cls-6" d="M552.41,774.1c2,0,4,0,5.98-.03"/>
    <path class="cls-1" d="M570.45,773.79c55.56-1.91,98.09-12.56,98.09-25.41s-40.82-23.82-98.68-25.11"/>
    <path class="cls-6" d="M563.84,723.18c-1.97-.02-3.97-.03-5.98-.03"/>
  </g>
  <g>
    <path class="cls-6" d="M555.8,505.25h-5.98"/>
    <path class="cls-17" d="M537.79,505.32c-253.6,1.95-317.24,45.62-317.24,99.19s112.04,107.67,319.95,109.67"/>
    <path class="cls-6" d="M546.52,714.22h5.98"/>
  </g>
  <g>
    <path class="cls-6" d="M552.5,714.24c1.98,0,3.98,0,5.98-.02"/>
    <path class="cls-3" d="M570.57,714.04c90.37-1.95,192.45-18.03,192.45-37.59s-104.69-36.04-196.32-37.36"/>
    <path class="cls-6" d="M560.65,639.03c-2,0-4-.02-5.98-.02"/>
  </g>
  <g>
    <path class="cls-6" d="M555.8,317.3h-5.98"/>
    <path class="cls-16" d="M537.96,317.4c-237.03,2.75-425,60.17-425,131.21s128.55,143.82,421.9,145.72"/>
    <path class="cls-6" d="M540.79,594.36h5.98"/>
  </g>
  <g>
    <path class="cls-6" d="M546.77,594.37c1.98,0,3.98,0,5.98-.02"/>
    <path class="cls-11" d="M564.95,594.23c119.41-1.85,256.94-21.58,256.94-47.96s-133.79-40.14-254.01-40.98"/>
    <path class="cls-6" d="M561.77,505.26h-5.97"/>
  </g>
  <g>
    <path class="cls-6" d="M.71,246.35c0,1.99.11,3.99.34,5.96"/>
    <path class="cls-18" d="M3.69,264.02c27.82,82.25,247.51,150.84,527.84,164.19"/>
    <path class="cls-6" d="M537.54,428.48c1.99.09,3.99.18,5.98.26"/>
  </g>
  <g>
    <path class="cls-6" d="M543.52,428.73h5.98"/>
    <path class="cls-7" d="M561.61,428.63c150.47-1.87,326.16-26.73,326.16-60.07s-169.7-50.46-320.91-51.3"/>
    <path class="cls-6" d="M560.8,317.23h-5.98"/>
  </g>
  <path class="cls-6" d="M614.35.48s-44.18,48.74-45.34,168.88"/>
  <path class="cls-6" d="M731.73,90.87s-145.69,78.88-159,299.47"/>
  <path class="cls-6" d="M574.3,598.14c44.9-406.6,421.07-387.7,421.07-387.7"/>
  <polyline class="cls-6" points="592.04 577.95 574.3 598.14 552.75 576.34"/>
  <polyline class="cls-6" points="592.92 372.94 572.73 390.34 552.32 372.94"/>
  <polyline class="cls-6" points="588.2 149.71 569.01 169.36 549.82 153.49"/>
  <path class="cls-6" d="M474.04.48s44.18,48.74,45.34,168.88"/>
  <path class="cls-6" d="M366.62,90.42s145.69,78.88,159,299.47"/>
  <path class="cls-6" d="M524.05,597.69C479.15,191.08,102.97,209.99,102.97,209.99"/>
  <polyline class="cls-6" points="506.3 577.49 524.05 597.69 545.59 575.88"/>
  <polyline class="cls-6" points="505.43 372.49 525.62 389.88 546.02 372.49"/>
  <polyline class="cls-6" points="500.19 149.71 519.38 169.36 538.57 153.49"/>
</svg>