<?xml version="1.0" encoding="UTF-8"?>
<svg id="Layer_1" data-name="Layer 1" xmlns="http://www.w3.org/2000/svg" viewBox="0 0 1117.33 910.18">
  <defs>
    <style>
      .cls-1 {
        stroke-dasharray: 12.08 12.08;
      }

      .cls-1, .cls-2, .cls-3, .cls-4, .cls-5, .cls-6, .cls-7, .cls-8, .cls-9, .cls-10, .cls-11, .cls-12, .cls-13, .cls-14, .cls-15, .cls-16, .cls-17, .cls-18, .cls-19, .cls-20, .cls-21, .cls-22 {
        fill: none;
        stroke: #0019ff;
        stroke-miterlimit: 10;
        stroke-width: 1.42px;
      }

      .cls-2 {
        stroke-dasharray: 11.89 11.89;
      }

      .cls-3 {
        stroke-dasharray: 12.13 12.13;
      }

      .cls-4 {
        stroke-dasharray: 12.26 12.26;
      }

      .cls-5 {
        stroke-dasharray: 12.38 12.38;
      }

      .cls-7 {
        stroke-dasharray: 12.14 12.14;
      }

      .cls-8 {
        stroke-dasharray: 11.3 11.3;
      }

      .cls-9 {
        stroke-dasharray: 11.85 11.85;
      }

      .cls-10 {
        stroke-dasharray: 12.87 12.87;
      }

      .cls-11 {
        stroke-dasharray: 12.24 12.24;
      }

      .cls-12 {
        stroke-dasharray: 11.86 11.86;
      }

      .cls-13 {
        stroke-dasharray: 12.22 12.22;
      }

      .cls-14 {
        stroke-dasharray: 12.3 12.3;
      }

      .cls-15 {
        stroke-dasharray: 12.07 12.07;
      }

      .cls-16 {
        stroke-dasharray: 11.9 11.9;
      }

      .cls-17 {
        stroke-dasharray: 12.06 12.06;
      }

      .cls-18 {
        stroke-dasharray: 12.05 12.05;
      }

      .cls-19 {
        stroke-dasharray: 12.21 12.21;
      }

      .cls-20 {
        stroke-dasharray: 11.68 11.68;
      }

      .cls-21 {
        stroke-dasharray: 11.88 11.88;
      }

      .cls-22 {
        stroke-dasharray: 11.33 11.33;
      }
    </style>
  </defs>
  <ellipse class="cls-5" cx="563.03" cy="13.52" rx="51.84" ry="12.81"/>
  <g>
    <path class="cls-6" d="M563.03,65.99c-2.04,0-4.04,0-5.98-.04"/>
    <path class="cls-22" d="M545.75,65.63c-52.57-2.34-64.67-15.78-64.67-32.01,0-10.14,8.59-16.94,16.04-20.93"/>
    <path class="cls-6" d="M502.21,10.26c3.29-1.39,5.62-2.04,5.62-2.04"/>
  </g>
  <g>
    <path class="cls-6" d="M565.1,135.18c-1.99,0-3.99-.02-5.98-.05"/>
    <path class="cls-2" d="M547.28,134.72c-62.92-3.31-120.87-23.62-120.87-48.18s61.07-45.93,124.72-48.27"/>
    <path class="cls-6" d="M557.05,38.11c1.99-.04,3.99-.06,5.98-.06"/>
  </g>
  <g>
    <path class="cls-6" d="M563.03,38.05c2.03,0,4.03,0,5.98.03"/>
    <path class="cls-12" d="M580.83,38.32c40.05,1.26,61.43,6.82,61.43,13.63s-23.48,13.04-67.34,13.94"/>
    <path class="cls-6" d="M569.01,65.96c-1.95.02-3.95.03-5.98.03"/>
  </g>
  <g>
    <path class="cls-6" d="M561.86,221c-2,0-4,0-5.98-.02"/>
    <path class="cls-18" d="M543.87,220.8c-120.75-2.7-213.13-32.43-213.13-68.7s96.04-66.93,216.85-68.8"/>
    <path class="cls-6" d="M553.61,83.23c1.98-.02,3.98-.02,5.98-.02"/>
  </g>
  <g>
    <path class="cls-6" d="M559.59,83.21c2,0,4,0,5.98.03"/>
    <path class="cls-4" d="M577.79,83.52c56.32,1.95,99.43,12.81,99.43,25.92s-41.39,24.31-100.02,25.62"/>
    <path class="cls-6" d="M571.09,135.15c-1.97.02-3.97.03-5.98.03"/>
  </g>
  <g>
    <path class="cls-6" d="M563.02,357.43h-5.98"/>
    <path class="cls-9" d="M545.23,357.36c-257.28-1.94-321.81-46.5-321.81-101.17s113.58-109.87,324.37-111.87"/>
    <path class="cls-6" d="M553.7,144.29h5.98"/>
  </g>
  <g>
    <path class="cls-6" d="M559.68,144.28c1.98,0,3.98,0,5.98.02"/>
    <path class="cls-14" d="M577.9,144.48c91.57,1.98,195.02,18.39,195.02,38.34s-106.1,36.76-198.95,38.11"/>
    <path class="cls-6" d="M567.85,220.98c-2,0-4,.02-5.98.02"/>
  </g>
  <g>
    <path class="cls-6" d="M563.02,549.14h-5.98"/>
    <path class="cls-15" d="M545.01,549.04c-240.14-2.8-430.58-61.38-430.58-133.85s130.25-146.71,427.46-148.63"/>
    <path class="cls-6" d="M547.89,266.54h5.98"/>
  </g>
  <g>
    <path class="cls-6" d="M553.87,266.53c1.98,0,3.98,0,5.98.02"/>
    <path class="cls-21" d="M571.69,266.67c121.11,1.83,260.87,21.98,260.87,48.93s-135.78,40.97-257.65,41.81"/>
    <path class="cls-6" d="M568.99,357.42h-5.97"/>
  </g>
  <g>
    <path class="cls-6" d="M.71,621.51c0-1.99.11-3.99.33-5.96"/>
    <path class="cls-13" d="M3.67,603.66c27.93-83.98,250.63-154.03,534.84-167.65"/>
    <path class="cls-6" d="M544.6,435.73c1.99-.09,3.99-.18,5.98-.26"/>
  </g>
  <g>
    <path class="cls-6" d="M550.58,435.47h5.97"/>
    <path class="cls-2" d="M568.4,435.58c152.54,1.86,330.89,27.23,330.89,61.28s-172.12,51.49-325.36,52.32"/>
    <path class="cls-6" d="M568,549.21h-5.98"/>
  </g>
  <g>
    <path class="cls-6" d="M563.03,55.2c-2.01,0-4.01.05-5.98.15"/>
    <path class="cls-8" d="M545.84,56.43c-20.3,2.93-35.5,10.44-35.5,15.92,0,5.96,18.04,9.7,41.06,10.64"/>
    <path class="cls-6" d="M557.04,83.15c1.97.04,3.97.06,5.98.06"/>
  </g>
  <g>
    <path class="cls-6" d="M563.02,119.2c2.04,0,4.04-.02,5.98-.05"/>
    <path class="cls-20" d="M580.64,118.75c46.73-2.54,61.78-15.59,61.78-31.29s-19.37-30.11-67.6-32.04"/>
    <path class="cls-6" d="M569.01,55.25c-1.95-.04-3.95-.06-5.98-.06"/>
  </g>
  <g>
    <path class="cls-6" d="M559.47,187.03c1.99,0,3.99-.02,5.98-.05"/>
    <path class="cls-19" d="M577.61,186.53c61.9-3.33,118.76-23.2,118.76-47.2s-47.79-45.08-108.97-47.46"/>
    <path class="cls-6" d="M581.33,91.7c-1.98-.04-3.98-.06-5.98-.06"/>
  </g>
  <g>
    <path class="cls-6" d="M575.35,91.64c-2.01,0-4.01,0-5.98.03"/>
    <path class="cls-10" d="M556.54,91.93c-41.82,1.3-73.24,6.85-73.24,13.49,0,7.08,15.44,12.9,67.32,13.69"/>
    <path class="cls-6" d="M557.03,119.18c1.94,0,3.94.02,5.98.02"/>
  </g>
  <g>
    <path class="cls-6" d="M562.67,271.16c2,0,4,0,5.98-.02"/>
    <path class="cls-21" d="M580.49,270.96c119.16-2.66,210.32-31.8,210.32-67.35s-94.77-65.6-214-67.46"/>
    <path class="cls-6" d="M570.9,136.09c-1.98-.02-3.98-.02-5.98-.02"/>
  </g>
  <g>
    <path class="cls-6" d="M564.91,136.07c-2,0-4,0-5.98.03"/>
    <path class="cls-1" d="M546.88,136.38c-55.56,1.91-98.09,12.56-98.09,25.41s40.82,23.82,98.68,25.11"/>
    <path class="cls-6" d="M553.49,186.99c1.97.02,3.97.03,5.98.03"/>
  </g>
  <g>
    <path class="cls-6" d="M561.53,404.92h5.98"/>
    <path class="cls-17" d="M579.54,404.85c253.6-1.95,317.24-45.62,317.24-99.19s-112.04-107.67-319.95-109.67"/>
    <path class="cls-6" d="M570.81,195.95h-5.98"/>
  </g>
  <g>
    <path class="cls-6" d="M564.83,195.93c-1.98,0-3.98,0-5.98.02"/>
    <path class="cls-3" d="M546.76,196.13c-90.37,1.95-192.45,18.03-192.45,37.59s104.69,36.04,196.32,37.36"/>
    <path class="cls-6" d="M556.68,271.14c2,0,4,.02,5.98.02"/>
  </g>
  <g>
    <path class="cls-6" d="M561.53,592.88h5.98"/>
    <path class="cls-16" d="M579.37,592.78c237.03-2.75,425-60.17,425-131.21s-128.55-143.82-421.9-145.72"/>
    <path class="cls-6" d="M576.54,315.81h-5.98"/>
  </g>
  <g>
    <path class="cls-6" d="M570.56,315.8c-1.98,0-3.98,0-5.98.02"/>
    <path class="cls-11" d="M552.37,315.94c-119.41,1.85-256.94,21.58-256.94,47.96s133.79,40.14,254.01,40.98"/>
    <path class="cls-6" d="M555.55,404.91h5.97"/>
  </g>
  <g>
    <path class="cls-6" d="M1116.62,663.82c0-1.99-.11-3.99-.34-5.96"/>
    <path class="cls-18" d="M1113.64,646.16c-27.82-82.25-247.51-150.84-527.84-164.19"/>
    <path class="cls-6" d="M579.79,481.7c-1.99-.09-3.99-.18-5.98-.26"/>
  </g>
  <g>
    <path class="cls-6" d="M573.81,481.44h-5.98"/>
    <path class="cls-7" d="M555.72,481.55c-150.47,1.87-326.16,26.73-326.16,60.07s169.7,50.46,320.91,51.3"/>
    <path class="cls-6" d="M556.53,592.95h5.98"/>
  </g>
  <path class="cls-6" d="M502.98,909.7s44.18-48.74,45.34-168.88"/>
  <path class="cls-6" d="M385.6,819.3s145.69-78.88,159-299.47"/>
  <path class="cls-6" d="M543.03,312.03c-44.9,406.6-421.07,387.7-421.07,387.7"/>
  <polyline class="cls-6" points="525.28 332.23 543.03 312.03 564.58 333.84"/>
  <polyline class="cls-6" points="524.41 537.23 544.6 519.84 565 537.23"/>
  <polyline class="cls-6" points="529.13 760.46 548.32 740.81 567.51 756.69"/>
  <path class="cls-6" d="M643.29,909.7s-44.18-48.74-45.34-168.88"/>
  <path class="cls-6" d="M750.71,819.76s-145.69-78.88-159-299.47"/>
  <path class="cls-6" d="M593.28,312.49c44.9,406.6,421.07,387.7,421.07,387.7"/>
  <polyline class="cls-6" points="611.03 332.68 593.28 312.49 571.73 334.29"/>
  <polyline class="cls-6" points="611.9 537.69 591.71 520.29 571.31 537.69"/>
  <polyline class="cls-6" points="617.14 760.46 597.95 740.81 578.76 756.69"/>
</svg>