<?xml version="1.0" encoding="UTF-8"?>
<svg id="Layer_1" xmlns="http://www.w3.org/2000/svg" version="1.1" viewBox="0 0 68.6 62.3">
  <!-- Generator: Adobe Illustrator 29.0.1, SVG Export Plug-In . SVG Version: 2.1.0 Build 192)  -->
  <defs>
    <style>
      .st0 {
        fill: none;
        stroke: #ff0303;
        stroke-miterlimit: 10;
        stroke-width: 2.5px;
      }
    </style>
  </defs>
  <polygon class="st0" points="28.3 25.4 25 23.3 20.6 20.5 30.4 5.2 38 10.1 28.3 25.4"/>
  <polygon class="st0" points="65.9 35.1 37.8 32.6 49.1 13.1 65.9 35.1"/>
  <line class="st0" x1="43" y1="22.9" x2="65.9" y2="35.1"/>
  <line class="st0" x1="23.8" y1="22.5" x2="27.1" y2="62.2"/>
  <line class="st0" x1="23.8" y1="22.5" x2=".4" y2="29.9"/>
  <line class="st0" x1="23.8" y1="22.5" x2="16.3" y2="36.4"/>
  <path class="st0" d="M50.8,10.3c-7.4-2.1-13.8,1.4-18.2,8.7-3.1,4.9-2.7,13.7,2.7,17.5,0,0,15.5-26.1,15.5-26.1Z"/>
  <line class="st0" x1="30.4" y1="5.2" x2="33" y2=".6"/>
</svg>