<?xml version="1.0" encoding="UTF-8"?>
<svg id="Layer_1" data-name="Layer 1" xmlns="http://www.w3.org/2000/svg" viewBox="0 0 127.64 127.49">
  <defs>
    <style>
      .cls-1 {
        fill: #65ff01;
        stroke: #65ff01;
        stroke-miterlimit: 10;
        stroke-width: 1.42px;
      }
    </style>
  </defs>
  <path class="cls-1" d="M71.57,40.83L63.84,3.65l-6.95,36.92c2.2-.66,4.53-1.02,6.95-1.02,2.71,0,5.31.45,7.73,1.28Z"/>
  <path class="cls-1" d="M56.89,86.73l6.95,36.92,6.95-36.92c-2.2.66-4.53,1.02-6.95,1.02s-4.75-.36-6.95-1.02Z"/>
  <path class="cls-1" d="M40.76,56.7L3.84,63.65l36.92,6.95c-.66-2.2-1.02-4.53-1.02-6.95s.36-4.75,1.02-6.95Z"/>
  <path class="cls-1" d="M86.92,70.6l36.92-6.95-36.96-7.1c.69,2.24,1.06,4.63,1.06,7.1s-.36,4.75-1.02,6.95Z"/>
  <path class="cls-1" d="M49.84,44.04l-17.28-11.81,11.79,17.25c1.53-2.1,3.38-3.94,5.49-5.45Z"/>
  <path class="cls-1" d="M78.02,83.13l17.14,11.71-11.68-17.24c-1.51,2.12-3.35,3.99-5.46,5.53Z"/>
  <path class="cls-1" d="M83.6,49.87l11.56-17.63-17.3,11.82c2.23,1.6,4.17,3.56,5.74,5.81Z"/>
  <path class="cls-1" d="M44.27,77.71l-11.71,17.14,17.12-11.69c-2.08-1.51-3.91-3.35-5.41-5.44Z"/>
  <path class="cls-1" d="M83.48,77.61c1.5-2.11,2.67-4.47,3.43-7"/>
  <path class="cls-1" d="M77.86,44.06c-1.91-1.37-4.02-2.46-6.29-3.23"/>
  <path class="cls-1" d="M49.68,83.15c2.16,1.57,4.59,2.8,7.21,3.58"/>
  <path class="cls-1" d="M56.89,40.57c-2.56.77-4.93,1.95-7.05,3.47"/>
  <path class="cls-1" d="M70.79,86.73c2.63-.79,5.07-2.02,7.24-3.6"/>
  <path class="cls-1" d="M44.34,49.49c-1.57,2.16-2.8,4.59-3.58,7.22"/>
  <path class="cls-1" d="M86.87,56.56c-.74-2.41-1.86-4.66-3.27-6.68"/>
  <path class="cls-1" d="M40.76,70.6c.77,2.58,1.97,4.97,3.51,7.1"/>
</svg>